<?xml version="1.0" encoding="utf-8"?>
<!-- Generator: Adobe Illustrator 24.1.2, SVG Export Plug-In . SVG Version: 6.00 Build 0)  -->
<svg version="1.1" id="Layer_1" xmlns="http://www.w3.org/2000/svg" xmlns:xlink="http://www.w3.org/1999/xlink" x="0px" y="0px"
	 viewBox="0 0 992.1 127.6" style="enable-background:new 0 0 992.1 127.6;" xml:space="preserve">
<style type="text/css">
	.st0{fill:#FFFFFF;}
</style>
<path class="st0" d="M118.1,78.5H56.4V63.2H136c-2.1-6.5-8.8-12.5-20.7-12.5H57.5c-13.2,0-20.9,4.9-20.9,15.6v11.4
	c0,9.3,7.9,14.6,19.5,14.6h62.5v16.3H34.5c2.1,8.8,8.8,13.5,20.9,13.5h62.9c13.2,0,19.7-5.1,19.7-16V94.5
	C138.1,84.6,130.4,79.2,118.1,78.5z M244.2,50.9h-76.2v71.3h21.6V94.8h56.2c15.6,0,24.2-5.3,24.2-17.9V69
	C269.8,57.4,260,50.9,244.2,50.9z M251.2,73.6c0,5.1-0.9,7.9-9.3,7.9h-52.2l0.2-18.6H241c9.3,0,10.4,2.8,10.4,7.7v3H251.2z
	 M341.8,94.3h-46l-11.4,12.1h66.4l11.4,15.8h25.5l-55-74.3l-13,16L341.8,94.3z M429.1,63.2h80.8c-2.1-8.4-10.2-12.5-21.8-12.5h-60.4
	c-10.4,0-20.4,4.2-20.4,15.6v39.9c0,11.4,10,15.6,20.4,15.6h61.1c13.9,0,18.8-3.9,21.1-13.5h-80.8L429.1,63.2z M604.6,86.9V74.8
	h-65.3v47.4h96.4v-13.5h-74.5V86.9L604.6,86.9z M541.7,50.9H639v12.5h-97.3V50.9z M698.9,50.9H665l39.9,29.3
	c5.8-3.9,12.5-8.1,18.6-11.6L698.9,50.9z M748.1,87.3c-5.8,3.9-11.6,8.4-17.2,12.5l30.2,22.1h34.1L748.1,87.3z"/>
<path class="st0" d="M957.6,9.3C771.8,20,685.9,99.4,666.6,118.2l-3.9,3.7H697C789.9,28.8,923.5,12.3,957.6,9.3z"/>
</svg>
